<svg width="20" height="20" viewBox="0 0 20 20" fill="none" xmlns="http://www.w3.org/2000/svg">
<path fill-rule="evenodd" clip-rule="evenodd" d="M0 0.909091C0 0.407014 0.407014 0 0.909091 0H4.21487C4.65117 0 5.02594 0.30995 5.10781 0.738493L5.79379 4.329H19.0909C19.3605 4.329 19.6162 4.44867 19.7889 4.65567C19.9616 4.86267 20.0336 5.13566 19.9853 5.40091L18.6618 12.6715C18.5484 13.2695 18.2363 13.8153 17.7699 14.2086C17.3051 14.6007 16.7171 14.815 16.1076 14.8052H8.09075C7.48121 14.815 6.89328 14.6007 6.42842 14.2086C5.96214 13.8154 5.65014 13.2699 5.53667 12.672L4.15618 5.44629C4.15053 5.42215 4.14583 5.39765 4.14214 5.37282L3.46302 1.81818H0.909091C0.407014 1.81818 0 1.41117 0 0.909091ZM6.14115 6.14719L7.32293 12.3328C7.3607 12.532 7.46264 12.7024 7.60057 12.8187C7.7375 12.9342 7.90184 12.9905 8.06439 12.9872L8.08264 12.987H16.1157L16.1339 12.9872C16.2965 12.9905 16.4608 12.9342 16.5978 12.8187C16.7351 12.7029 16.8368 12.5335 16.8749 12.3354L16.8754 12.3328L18.0014 6.14719H6.14115Z" fill="white"/>
<path d="M10 18.1818C10 19.186 9.18597 20 8.18182 20C7.17766 20 6.36363 19.186 6.36363 18.1818C6.36363 17.1777 7.17766 16.3636 8.18182 16.3636C9.18597 16.3636 10 17.1777 10 18.1818Z" fill="white"/>
<path d="M16.3636 20C17.3678 20 18.1818 19.186 18.1818 18.1818C18.1818 17.1777 17.3678 16.3636 16.3636 16.3636C15.3595 16.3636 14.5454 17.1777 14.5454 18.1818C14.5454 19.186 15.3595 20 16.3636 20Z" fill="white"/>
</svg>
