<svg width="21" height="21" viewBox="0 0 21 21" fill="none" xmlns="http://www.w3.org/2000/svg">
<path d="M0 1.16667C0 0.522334 0.522442 0 1.16691 0H1.58745C3.25618 0 4.69293 1.17761 5.02019 2.8136L5.1575 3.5H19.2489C20.3754 3.5 21.2086 4.54856 20.9539 5.64573L19.4334 12.1943C19.1879 13.2516 18.2456 14 17.16 14H6.79117C5.67869 14 4.72085 13.2149 4.50268 12.1243L2.7317 3.2712C2.62261 2.72587 2.14369 2.33333 1.58745 2.33333H1.16691C0.522442 2.33333 0 1.811 0 1.16667Z" fill="#BDBDBD"/>
<path d="M7.00144 21C8.29037 21 9.33526 19.9553 9.33526 18.6667C9.33526 17.378 8.29037 16.3333 7.00144 16.3333C5.71251 16.3333 4.66763 17.378 4.66763 18.6667C4.66763 19.9553 5.71251 21 7.00144 21Z" fill="#BDBDBD"/>
<path d="M16.3367 21C17.6256 21 18.6705 19.9553 18.6705 18.6667C18.6705 17.378 17.6256 16.3333 16.3367 16.3333C15.0478 16.3333 14.0029 17.378 14.0029 18.6667C14.0029 19.9553 15.0478 21 16.3367 21Z" fill="#BDBDBD"/>
</svg>
